<svg width="46" height="46" viewBox="0 0 46 46" fill="none" xmlns="http://www.w3.org/2000/svg">
<rect x="3" y="3" width="40" height="40" rx="20" fill="#F1F5F9"/>
<rect x="3" y="3" width="40" height="40" rx="20" stroke="#F8FAFC" stroke-width="6"/>
<path d="M32.1666 28.8333C32.1666 29.2754 31.991 29.6993 31.6785 30.0118C31.3659 30.3244 30.942 30.5 30.5 30.5H15.5C15.058 30.5 14.634 30.3244 14.3215 30.0118C14.0089 29.6993 13.8333 29.2754 13.8333 28.8333V19.6667C13.8333 19.2246 14.0089 18.8007 14.3215 18.4882C14.634 18.1756 15.058 18 15.5 18H18.8333L20.5 15.5H25.5L27.1666 18H30.5C30.942 18 31.3659 18.1756 31.6785 18.4882C31.991 18.8007 32.1666 19.2246 32.1666 19.6667V28.8333Z" stroke="#475569" stroke-width="1.66667" stroke-linecap="round" stroke-linejoin="round"/>
<path d="M23 27.1667C24.8409 27.1667 26.3333 25.6743 26.3333 23.8333C26.3333 21.9924 24.8409 20.5 23 20.5C21.159 20.5 19.6666 21.9924 19.6666 23.8333C19.6666 25.6743 21.159 27.1667 23 27.1667Z" stroke="#475569" stroke-width="1.66667" stroke-linecap="round" stroke-linejoin="round"/>
</svg>
