<svg width="46" height="46" viewBox="0 0 46 46" fill="none" xmlns="http://www.w3.org/2000/svg">
<rect x="3" y="3" width="40" height="40" rx="20" fill="#F1F5F9"/>
<rect x="3" y="3" width="40" height="40" rx="20" stroke="#F8FAFC" stroke-width="6"/>
<g clip-path="url(#clip0_2108_115)">
<path d="M26.3334 26.3334L23 23M23 23L19.6667 26.3334M23 23V30.5M29.9917 28.325C30.8045 27.8819 31.4466 27.1808 31.8166 26.3322C32.1866 25.4837 32.2635 24.5361 32.0352 23.6389C31.8069 22.7418 31.2863 21.9463 30.5556 21.3779C29.8249 20.8095 28.9257 20.5006 28 20.5H26.95C26.6978 19.5244 26.2277 18.6186 25.575 17.8509C24.9223 17.0831 24.1041 16.4732 23.1818 16.0672C22.2595 15.6612 21.2572 15.4695 20.2501 15.5066C19.2431 15.5437 18.2576 15.8086 17.3677 16.2814C16.4778 16.7542 15.7066 17.4226 15.1122 18.2363C14.5178 19.0501 14.1156 19.988 13.9358 20.9795C13.7561 21.9711 13.8034 22.9905 14.0744 23.9611C14.3453 24.9317 14.8327 25.8282 15.5 26.5834" stroke="#475569" stroke-width="1.66667" stroke-linecap="round" stroke-linejoin="round"/>
</g>
<defs>
<clipPath id="clip0_2108_115">
<rect width="20" height="20" fill="white" transform="translate(13 13)"/>
</clipPath>
</defs>
</svg>
