<svg width="18" height="18" viewBox="0 0 18 18" fill="none" xmlns="http://www.w3.org/2000/svg">
<path d="M10.5 2.25V5.25C10.5 5.66421 10.8358 6 11.25 6H14.25" stroke="#6172F3" stroke-width="1.5" stroke-linecap="round" stroke-linejoin="round"/>
<path d="M3 9.75C3 10.1642 3.33579 10.5 3.75 10.5C4.16421 10.5 4.5 10.1642 4.5 9.75H3ZM10.5 2.25L11.0303 1.71967C10.8897 1.57902 10.6989 1.5 10.5 1.5V2.25ZM14.25 6H15C15 5.80109 14.921 5.61032 14.7803 5.46967L14.25 6ZM8.625 15C8.21079 15 7.875 15.3358 7.875 15.75C7.875 16.1642 8.21079 16.5 8.625 16.5V15ZM1.5 13.5C1.08579 13.5 0.75 13.8358 0.75 14.25C0.75 14.6642 1.08579 15 1.5 15V13.5ZM6.75 15C7.16421 15 7.5 14.6642 7.5 14.25C7.5 13.8358 7.16421 13.5 6.75 13.5V15ZM5.03033 11.4697C4.73744 11.1768 4.26256 11.1768 3.96967 11.4697C3.67678 11.7626 3.67678 12.2374 3.96967 12.5303L5.03033 11.4697ZM6.75 14.25L7.28033 14.7803C7.57322 14.4874 7.57322 14.0126 7.28033 13.7197L6.75 14.25ZM3.96967 15.9697C3.67678 16.2626 3.67678 16.7374 3.96967 17.0303C4.26256 17.3232 4.73744 17.3232 5.03033 17.0303L3.96967 15.9697ZM4.5 9.75V3.75H3V9.75H4.5ZM4.5 3.75C4.5 3.33579 4.83579 3 5.25 3V1.5C4.00736 1.5 3 2.50736 3 3.75H4.5ZM5.25 3H10.5V1.5H5.25V3ZM9.96967 2.78033L13.7197 6.53033L14.7803 5.46967L11.0303 1.71967L9.96967 2.78033ZM13.5 6V14.25H15V6H13.5ZM13.5 14.25C13.5 14.6642 13.1642 15 12.75 15V16.5C13.9926 16.5 15 15.4926 15 14.25H13.5ZM12.75 15H8.625V16.5H12.75V15ZM1.5 15H6.75V13.5H1.5V15ZM3.96967 12.5303L6.21967 14.7803L7.28033 13.7197L5.03033 11.4697L3.96967 12.5303ZM6.21967 13.7197L3.96967 15.9697L5.03033 17.0303L7.28033 14.7803L6.21967 13.7197Z" fill="#6172F3"/>
</svg>
