<svg width="174" height="40" viewBox="0 0 174 40" fill="none" xmlns="http://www.w3.org/2000/svg">
<g clip-path="url(#clip0_112_234)">
<path fill-rule="evenodd" clip-rule="evenodd" d="M4.7998 22.7738C9.25707 27.2564 12.0041 29.3556 15.0638 29.1139C21.7001 28.589 32.6082 16.2686 35.5608 10.6729C33.7919 18.9271 24.2613 36.5072 14.7641 36.8449C8.12779 37.0803 5.20121 28.0804 4.7998 22.7738Z" fill="#0EAB4E"/>
<path fill-rule="evenodd" clip-rule="evenodd" d="M25.7307 31.7297C25.2372 32.2714 24.7504 32.7762 24.2703 33.2446C23.9045 33.599 23.5303 33.9429 23.1482 34.273H23.159C21.4095 35.8038 19.7528 36.8239 18.1895 37.3329C20.0927 37.0112 22.3437 35.9257 25.0317 34.273H32.146V24.9924L34.3355 18.0905C33.6687 19.5957 32.9379 21.0712 32.146 22.5136L32.1355 22.5329L32.0702 22.6514L32.069 22.6535L32.0581 22.6732L32.0288 22.7264L32.0024 22.7738L31.9991 22.7792L31.9694 22.8324L31.9396 22.8856L31.935 22.894L31.9103 22.9384L31.8806 22.9912L31.8681 23.0138L31.8656 23.0184L31.8003 23.134L31.7911 23.15L31.7613 23.2027L31.7325 23.2539L31.7316 23.2555L31.6713 23.3611L31.6642 23.3733L31.6111 23.4663L31.596 23.4926C31.1385 24.2886 30.6622 25.0741 30.167 25.8479C28.9946 27.6795 27.4878 29.7854 25.7303 31.7297H25.7307Z" fill="#4F46E5"/>
<path fill-rule="evenodd" clip-rule="evenodd" d="M14.9636 27.85C18.6591 27.5576 23.8216 22.8902 26.3292 20.3712C28.0742 18.6184 29.7334 16.7445 31.2561 14.7948C31.5516 14.4165 31.8505 14.0265 32.1468 13.6268C32.9111 12.631 33.6574 11.6218 34.3853 10.5988L32.1468 12.7935V7.96786L26.8491 2.66669H5.32324V21.5036L5.69744 21.8798C7.239 23.4302 8.95092 25.129 10.7453 26.3829C11.8038 27.1223 13.0152 27.7825 14.3303 27.8575C14.5412 27.8697 14.7526 27.8667 14.9636 27.85Z" fill="#4F46E5"/>
<path d="M9.58584 8.33484H26.9231C27.1659 8.33484 27.3634 8.53216 27.3634 8.77556C27.3634 9.01896 27.1663 9.21627 26.9231 9.21627H9.58584C9.34265 9.21627 9.14551 9.01896 9.14551 8.77556C9.14551 8.53216 9.34265 8.33484 9.58584 8.33484Z" fill="white"/>
<path d="M9.58584 11.1132H26.9231C27.1659 11.1132 27.3634 11.3105 27.3634 11.5539C27.3634 11.7973 27.1663 11.9947 26.9231 11.9947H9.58584C9.34265 11.9947 9.14551 11.7973 9.14551 11.5539C9.14551 11.3105 9.34265 11.1132 9.58584 11.1132Z" fill="white"/>
<path d="M9.58584 13.892H26.1647C26.4079 13.892 26.605 14.0893 26.605 14.3327C26.605 14.5761 26.4079 14.7734 26.1647 14.7734H9.58584C9.34307 14.7734 9.14551 14.5761 9.14551 14.3327C9.14551 14.0893 9.34265 13.892 9.58584 13.892Z" fill="white"/>
<path d="M9.58584 16.6708H23.963C24.2062 16.6708 24.4034 16.8681 24.4034 17.1115C24.4034 17.3545 24.2062 17.5522 23.963 17.5522H9.58584C9.34265 17.5522 9.14551 17.3549 9.14551 17.1115C9.14551 16.8681 9.34265 16.6708 9.58584 16.6708Z" fill="white"/>
<path d="M9.58584 19.4492H22.2507C22.4935 19.4492 22.691 19.6465 22.691 19.8899C22.691 20.1333 22.4939 20.3306 22.2507 20.3306H9.58584C9.34265 20.3306 9.14551 20.1333 9.14551 19.8899C9.14551 19.6465 9.34265 19.4492 9.58584 19.4492Z" fill="white"/>
<path d="M9.58584 22.2279H20.5873C20.8301 22.2279 21.0277 22.4252 21.0277 22.6686C21.0277 22.912 20.8305 23.1093 20.5873 23.1093H9.58584C9.34307 23.1093 9.14551 22.912 9.14551 22.6686C9.14551 22.4252 9.34265 22.2279 9.58584 22.2279Z" fill="white"/>
<path fill-rule="evenodd" clip-rule="evenodd" d="M6.4209 29.7251C7.96623 33.5935 10.6534 36.9907 14.7641 36.8445C24.2613 36.5068 33.7915 18.9267 35.5608 10.6725C30.8746 19.5543 17.2587 41.1616 6.42132 29.7247L6.4209 29.7251Z" fill="#06A44C"/>
<path fill-rule="evenodd" clip-rule="evenodd" d="M9.58546 8.33484H16.791C17.6553 6.52883 18.3585 4.63316 18.8842 2.66669H5.32324V21.5036L5.3245 21.5048C7.08079 20.3431 8.71485 19.018 10.2062 17.5522H9.58546C9.34311 17.5522 9.14513 17.354 9.14513 17.1115C9.14513 16.8689 9.34353 16.6708 9.58546 16.6708H11.0697C11.646 16.06 12.199 15.427 12.7272 14.7734H9.58546C9.34311 14.7734 9.14513 14.5753 9.14513 14.3327C9.14513 14.0901 9.34311 13.892 9.58546 13.892H13.4145C13.8782 13.2757 14.3207 12.6431 14.7409 11.9946H9.58546C9.34311 11.9946 9.14513 11.7965 9.14513 11.5539C9.14513 11.3114 9.34311 11.1132 9.58546 11.1132H15.2921C15.6659 10.4936 16.02 9.86102 16.3528 9.21586H9.58546C9.34311 9.21586 9.14513 9.0177 9.14513 8.77514C9.14513 8.53258 9.34311 8.33442 9.58546 8.33442V8.33484Z" fill="#818CF8"/>
<path fill-rule="evenodd" clip-rule="evenodd" d="M16.7916 8.33485H26.1779C26.9259 6.93771 27.5964 5.49156 28.1837 4.00225L26.8493 2.66711H18.8845C18.3592 4.63358 17.6556 6.52925 16.7912 8.33527L16.7916 8.33485ZM19.4499 17.5522H10.2064C8.71506 19.018 7.08099 20.3431 5.32471 21.5048L5.69765 21.8798C6.80726 22.9954 8.00476 24.1881 9.25752 25.2363C10.4772 24.5852 11.6592 23.8752 12.8006 23.1093H9.58567C9.34332 23.1093 9.14534 22.9112 9.14534 22.6686C9.14534 22.4261 9.34332 22.2279 9.58567 22.2279H14.063C14.8926 21.6251 15.6992 20.9921 16.4798 20.3306H9.58567C9.34332 20.3306 9.14534 20.1324 9.14534 19.8898C9.14534 19.6473 9.34332 19.4491 9.58567 19.4491H17.4865C18.1616 18.8383 18.8162 18.2057 19.4495 17.5518L19.4499 17.5522ZM21.9086 14.7734H12.7274C12.1996 15.427 11.6467 16.06 11.0699 16.6708H20.2787C20.8408 16.0554 21.3841 15.4224 21.9086 14.7734ZM23.9662 11.9946H14.7415C14.3217 12.6432 13.8789 13.2757 13.4151 13.892H22.6009C23.0734 13.2732 23.5288 12.6406 23.9662 11.9946ZM25.692 9.21587H16.3534C16.0202 9.86102 15.6665 10.4936 15.2928 11.1132H24.5472C24.9452 10.4919 25.327 9.85935 25.692 9.21587Z" fill="#6366F1"/>
</g>
<path d="M58.084 11.452L49.936 24.304H58.252V28H45.008V24.92L53.156 12.096H45.204V8.4H58.084V11.452ZM62.4284 12.32C61.2244 12.32 60.2164 11.312 60.2164 10.108C60.2164 8.904 61.2244 7.868 62.4284 7.868C63.6604 7.868 64.6684 8.904 64.6684 10.108C64.6684 11.312 63.6604 12.32 62.4284 12.32ZM64.2484 28H60.6364V14H64.2484V28ZM71.1663 28H67.5543V7.56H71.1663V28ZM78.0843 28H74.4723V7.56H78.0843V28ZM92.0303 15.652V14H95.6423V28H92.0303V26.348C90.9383 27.72 89.4263 28.392 87.4663 28.392C85.5903 28.392 83.9943 27.692 82.6503 26.264C81.3343 24.836 80.6623 23.072 80.6623 21C80.6623 18.928 81.3343 17.192 82.6503 15.764C83.9943 14.336 85.5903 13.608 87.4663 13.608C89.4263 13.608 90.9383 14.28 92.0303 15.652ZM85.3663 23.856C86.0943 24.584 87.0183 24.948 88.1383 24.948C89.2583 24.948 90.1823 24.584 90.9103 23.856C91.6663 23.1 92.0303 22.148 92.0303 21C92.0303 19.852 91.6663 18.9 90.9103 18.172C90.1823 17.416 89.2583 17.052 88.1383 17.052C87.0183 17.052 86.0943 17.416 85.3663 18.172C84.6383 18.9 84.2743 19.852 84.2743 21C84.2743 22.148 84.6383 23.1 85.3663 23.856ZM108.998 29.596C108.848 29.596 108.671 29.568 108.466 29.512C107.327 29.1387 106.496 28.5227 105.974 27.664C105.451 26.7867 105.19 25.8627 105.19 24.892C105.19 24.7427 105.19 24.6027 105.19 24.472C105.208 24.3227 105.227 24.1827 105.246 24.052C105.414 22.988 105.768 22.0453 106.31 21.224C106.87 20.4027 107.495 19.7307 108.186 19.208C108.895 18.6667 109.539 18.3213 110.118 18.172C110.491 18.0787 110.864 18.004 111.238 17.948C111.611 17.8733 111.975 17.836 112.33 17.836C113.226 17.836 113.991 18.032 114.626 18.424C115.26 18.816 115.578 19.46 115.578 20.356C115.578 20.86 115.419 21.3173 115.102 21.728C114.803 22.1387 114.42 22.4933 113.954 22.792C113.506 23.072 113.067 23.296 112.638 23.464C111.984 23.7253 111.238 23.9213 110.398 24.052C109.576 24.1827 108.802 24.248 108.074 24.248C107.607 24.248 107.178 24.22 106.786 24.164V24.192C106.786 24.2667 106.776 24.3413 106.758 24.416C106.739 24.472 106.73 24.5373 106.73 24.612C106.711 24.6867 106.702 24.7613 106.702 24.836C106.702 24.892 106.702 24.948 106.702 25.004C106.702 25.5827 106.814 26.096 107.038 26.544C107.28 26.9733 107.56 27.3467 107.878 27.664C108.195 27.9627 108.456 28.2053 108.662 28.392C108.998 28.56 109.231 28.7187 109.362 28.868C109.511 29.036 109.586 29.1667 109.586 29.26C109.586 29.484 109.39 29.596 108.998 29.596ZM108.83 22.988C109.39 22.988 109.978 22.9507 110.594 22.876C111.21 22.7827 111.779 22.6147 112.302 22.372C112.712 22.1667 113.095 21.896 113.45 21.56C113.804 21.2053 113.982 20.7853 113.982 20.3C113.982 19.9267 113.832 19.6467 113.534 19.46C113.235 19.2733 112.815 19.18 112.274 19.18C111.658 19.18 110.986 19.292 110.258 19.516C109.996 19.5907 109.67 19.768 109.278 20.048C108.904 20.328 108.522 20.7107 108.13 21.196C107.738 21.6627 107.411 22.2227 107.15 22.876C107.374 22.8947 107.626 22.9227 107.906 22.96C108.204 22.9787 108.512 22.988 108.83 22.988ZM119.077 22.26C118.834 22.2973 118.638 22.2507 118.489 22.12C118.358 21.9707 118.293 21.8027 118.293 21.616C118.293 21.4667 118.339 21.3267 118.433 21.196C118.545 21.0467 118.703 20.9533 118.909 20.916C119.095 20.8787 119.478 20.8413 120.057 20.804C120.635 20.748 121.289 20.7013 122.017 20.664C122.763 20.6267 123.445 20.608 124.061 20.608C124.714 20.608 125.209 20.636 125.545 20.692C125.825 20.748 125.965 20.8413 125.965 20.972C125.965 21.1027 125.853 21.2427 125.629 21.392C125.405 21.5227 125.134 21.5973 124.817 21.616C124.014 21.6347 123.221 21.6907 122.437 21.784C121.671 21.8773 120.99 21.9707 120.393 22.064C119.795 22.1387 119.357 22.204 119.077 22.26ZM129.23 30.156C128.651 30.156 128.119 30.044 127.634 29.82C127.167 29.6147 126.878 29.26 126.766 28.756C126.766 28.4387 126.822 28.196 126.934 28.028C127.046 27.86 127.176 27.776 127.326 27.776C127.662 27.776 127.932 28.056 128.138 28.616C128.25 28.896 128.623 29.036 129.258 29.036C129.575 29.036 129.948 28.98 130.378 28.868C130.807 28.7747 131.255 28.6253 131.722 28.42C132.226 28.1773 132.804 27.8693 133.458 27.496C134.13 27.104 134.774 26.6467 135.39 26.124C136.024 25.5827 136.547 24.9667 136.958 24.276C137.368 23.5667 137.574 22.7827 137.574 21.924C137.574 21.196 137.406 20.58 137.07 20.076C136.752 19.572 136.342 19.1053 135.838 18.676C135.352 18.228 134.858 17.7427 134.354 17.22C133.85 16.6973 133.43 16.044 133.094 15.26C133.019 15.0733 132.963 14.8867 132.926 14.7C132.888 14.5133 132.87 14.336 132.87 14.168C132.87 13.6267 133.01 13.1227 133.29 12.656C133.588 12.1893 133.934 11.7973 134.326 11.48C134.867 11.032 135.474 10.7333 136.146 10.584C136.818 10.4347 137.499 10.36 138.19 10.36C138.339 10.36 138.488 10.36 138.638 10.36C138.787 10.36 138.927 10.3693 139.058 10.388C139.45 10.4067 139.73 10.528 139.898 10.752C140.084 10.976 140.196 11.2 140.234 11.424C140.29 11.6293 140.318 11.7413 140.318 11.76C140.392 11.8907 140.43 12.012 140.43 12.124C140.43 12.4413 140.234 12.6 139.842 12.6C139.618 12.6 139.403 12.5253 139.198 12.376L138.274 11.676C138.199 11.62 138.106 11.592 137.994 11.592C137.882 11.5733 137.751 11.564 137.602 11.564C137.247 11.564 136.836 11.6293 136.37 11.76C135.903 11.872 135.548 12.0307 135.306 12.236C135.063 12.46 134.876 12.7307 134.746 13.048C134.634 13.3467 134.578 13.6547 134.578 13.972C134.578 14.2333 134.624 14.4853 134.718 14.728C134.923 15.344 135.259 15.8947 135.726 16.38C136.211 16.8653 136.715 17.36 137.238 17.864C137.779 18.3493 138.236 18.9 138.61 19.516C138.983 20.1133 139.17 20.8227 139.17 21.644C139.17 22.4653 138.992 23.24 138.638 23.968C138.283 24.696 137.816 25.368 137.238 25.984C136.678 26.5813 136.071 27.1227 135.418 27.608C134.764 28.0747 134.139 28.476 133.542 28.812C132.944 29.148 132.44 29.4 132.03 29.568C131.656 29.736 131.218 29.876 130.714 29.988C130.21 30.1 129.715 30.156 129.23 30.156ZM146.713 17.276C146.619 17.388 146.498 17.3973 146.349 17.304C146.218 17.2107 146.106 17.0707 146.013 16.884C145.919 16.6787 145.891 16.4827 145.929 16.296H145.957C146.031 16.016 146.125 15.7827 146.237 15.596C146.349 15.4093 146.498 15.2227 146.685 15.036C146.797 14.924 146.946 14.868 147.133 14.868C147.301 14.868 147.45 14.924 147.581 15.036C147.73 15.1293 147.805 15.2507 147.805 15.4C147.805 15.4747 147.777 15.5587 147.721 15.652C147.665 15.7267 147.553 15.9227 147.385 16.24C147.235 16.5573 147.011 16.9027 146.713 17.276ZM143.185 27.608C142.886 27.608 142.587 27.496 142.289 27.272C142.009 27.0293 141.897 26.6467 141.953 26.124C142.027 25.396 142.13 24.78 142.261 24.276C142.391 23.772 142.541 23.3147 142.709 22.904C142.877 22.4747 143.054 22.0173 143.241 21.532C143.446 21.0467 143.651 20.4587 143.857 19.768C143.969 19.4507 144.202 19.292 144.557 19.292C144.799 19.292 145.014 19.3667 145.201 19.516C145.387 19.6653 145.443 19.8707 145.369 20.132C145.126 20.916 144.883 21.5507 144.641 22.036C144.398 22.5213 144.174 22.9507 143.969 23.324C143.763 23.6787 143.586 24.0707 143.437 24.5C143.306 24.9107 143.222 25.4427 143.185 26.096C143.185 26.152 143.306 26.2733 143.549 26.46C143.791 26.628 143.913 26.824 143.913 27.048C143.913 27.216 143.819 27.3653 143.633 27.496C143.539 27.5707 143.39 27.608 143.185 27.608ZM151.563 35.924C151.32 35.924 151.078 35.9053 150.835 35.868C150.611 35.8307 150.387 35.784 150.163 35.728C149.771 35.616 149.482 35.4107 149.295 35.112C149.127 34.8133 149.043 34.5053 149.043 34.188C149.043 33.9267 149.108 33.7213 149.239 33.572C149.37 33.4413 149.528 33.376 149.715 33.376C149.771 33.376 149.818 33.376 149.855 33.376C149.911 33.3947 149.967 33.4133 150.023 33.432C150.154 33.488 150.303 33.6653 150.471 33.964C150.658 34.2627 150.844 34.4587 151.031 34.552C151.087 34.5707 151.162 34.58 151.255 34.58C151.572 34.58 151.927 34.44 152.319 34.16C152.73 33.88 153.038 33.6187 153.243 33.376C154.046 32.4613 154.662 31.556 155.091 30.66C155.52 29.764 155.856 28.896 156.099 28.056C156.36 27.216 156.612 26.432 156.855 25.704C156.444 26.0773 156.015 26.404 155.567 26.684C155.119 26.9453 154.578 27.16 153.943 27.328C153.327 27.496 152.515 27.636 151.507 27.748C151.376 27.7667 151.255 27.776 151.143 27.776C151.031 27.776 150.919 27.776 150.807 27.776C149.93 27.776 149.192 27.608 148.595 27.272C147.998 26.9173 147.55 26.4693 147.251 25.928C146.952 25.3867 146.803 24.808 146.803 24.192C146.803 23.2773 147.102 22.4373 147.699 21.672C148.054 21.224 148.502 20.748 149.043 20.244C149.584 19.7213 150.21 19.236 150.919 18.788C151.647 18.34 152.45 17.976 153.327 17.696C154.223 17.416 155.184 17.2947 156.211 17.332C156.734 17.332 157.107 17.4253 157.331 17.612C157.574 17.78 157.723 17.9947 157.779 18.256C157.854 18.4987 157.891 18.7507 157.891 19.012C157.872 19.292 157.76 19.432 157.555 19.432C157.387 19.432 157.182 19.3667 156.939 19.236C156.696 19.1053 156.426 18.984 156.127 18.872C155.044 18.7973 154.018 18.9467 153.047 19.32C152.095 19.6933 151.246 20.1693 150.499 20.748C149.771 21.308 149.202 21.868 148.791 22.428C148.455 22.876 148.287 23.3987 148.287 23.996C148.287 24.444 148.399 24.8827 148.623 25.312C148.866 25.7227 149.23 26.0587 149.715 26.32C150.2 26.5627 150.807 26.656 151.535 26.6C152.431 26.5253 153.187 26.3573 153.803 26.096C154.419 25.8347 154.96 25.508 155.427 25.116C155.894 24.724 156.323 24.2947 156.715 23.828C157.107 23.3613 157.527 22.8947 157.975 22.428C158.087 22.316 158.227 22.26 158.395 22.26C158.544 22.26 158.684 22.3253 158.815 22.456C158.946 22.568 159.011 22.736 159.011 22.96C159.011 23.016 159.011 23.0813 159.011 23.156C159.011 23.212 158.992 23.2773 158.955 23.352C158.824 23.8187 158.647 24.4533 158.423 25.256C158.199 26.04 157.938 26.8987 157.639 27.832C157.359 28.7467 157.032 29.6333 156.659 30.492C156.267 31.3693 155.791 32.228 155.231 33.068C154.69 33.908 154.13 34.636 153.551 35.252H153.579C153.374 35.4947 153.084 35.6627 152.711 35.756C152.356 35.868 151.974 35.924 151.563 35.924ZM171.399 28.224C171.119 28.224 170.858 28.0653 170.615 27.748C170.372 27.412 170.251 26.992 170.251 26.488C170.251 26.1707 170.279 25.7693 170.335 25.284C170.391 24.7987 170.475 24.3133 170.587 23.828C170.699 23.324 170.83 22.8947 170.979 22.54C171.278 21.868 171.427 21.336 171.427 20.944C171.427 20.4587 171.203 20.216 170.755 20.216C170.699 20.216 170.634 20.216 170.559 20.216C170.484 20.216 170.41 20.2347 170.335 20.272C169.962 20.384 169.458 20.636 168.823 21.028C168.188 21.4013 167.516 21.84 166.807 22.344C166.116 22.848 165.463 23.352 164.847 23.856C164.231 24.36 163.755 24.7987 163.419 25.172C162.952 25.6947 162.644 26.096 162.495 26.376C162.346 26.656 162.271 26.796 162.271 26.796C162.122 27.0013 161.954 27.104 161.767 27.104C161.599 27.104 161.459 27.02 161.347 26.852C161.235 26.6653 161.207 26.4227 161.263 26.124C161.524 24.5933 161.804 23.2867 162.103 22.204C162.42 21.1213 162.784 20.188 163.195 19.404C163.363 19.1053 163.596 18.956 163.895 18.956C164.063 18.956 164.212 19.0213 164.343 19.152C164.474 19.264 164.539 19.4413 164.539 19.684C164.539 19.8147 164.483 20.0667 164.371 20.44C164.278 20.8133 164.156 21.1213 164.007 21.364C163.82 21.6627 163.662 22.008 163.531 22.4C163.419 22.7733 163.279 23.296 163.111 23.968C163.316 23.6507 163.494 23.4267 163.643 23.296C163.792 23.1467 163.988 22.9507 164.231 22.708C164.996 21.9427 165.902 21.252 166.947 20.636C168.011 20.0013 169.028 19.4693 169.999 19.04C170.204 18.9467 170.466 18.8533 170.783 18.76C171.1 18.6667 171.418 18.62 171.735 18.62C172.108 18.62 172.444 18.7227 172.743 18.928C173.042 19.1333 173.191 19.5253 173.191 20.104C173.191 20.4027 173.135 20.7667 173.023 21.196C172.93 21.6253 172.762 22.1293 172.519 22.708C172.22 23.3987 172.024 24.1173 171.931 24.864C171.856 25.6107 171.819 26.2453 171.819 26.768C171.819 26.9173 171.819 27.0667 171.819 27.216C171.838 27.3467 171.847 27.468 171.847 27.58C171.847 27.7667 171.819 27.916 171.763 28.028C171.707 28.1587 171.586 28.224 171.399 28.224Z" fill="#4F46E5"/>
<defs>
<clipPath id="clip0_112_234">
<rect width="30.7606" height="34.6667" fill="white" transform="translate(4.7998 2.66669)"/>
</clipPath>
</defs>
</svg>
