<svg width="80" height="81" viewBox="0 0 80 81" fill="none" xmlns="http://www.w3.org/2000/svg">
<g filter="url(#filter0_d_2313_91472)">
<rect x="10" y="10.5605" width="60" height="60" rx="12" fill="white"/>
<path d="M51.512 45.8626C50.7168 47.7432 49.473 49.4004 47.8894 50.6892C46.3057 51.9781 44.4305 52.8594 42.4276 53.2561C40.4247 53.6528 38.3551 53.5528 36.3997 52.9648C34.4444 52.3769 32.6628 51.3189 31.2108 49.8834C29.7588 48.4479 28.6805 46.6785 28.0703 44.73C27.4601 42.7815 27.3365 40.7132 27.7103 38.7059C28.0841 36.6986 28.9439 34.8134 30.2146 33.2151C31.4853 31.6169 33.1281 30.3542 34.9995 29.5376" stroke="#4F46E5" stroke-width="2" stroke-linecap="round" stroke-linejoin="round"/>
<path d="M52.5 41C52.5 39.3585 52.1767 37.733 51.5485 36.2165C50.9203 34.6999 49.9996 33.3219 48.8388 32.1612C47.6781 31.0004 46.3001 30.0797 44.7835 29.4515C43.267 28.8233 41.6415 28.5 40 28.5V41H52.5Z" stroke="#4F46E5" stroke-width="2" stroke-linecap="round" stroke-linejoin="round"/>
</g>
<defs>
<filter id="filter0_d_2313_91472" x="0" y="0.560547" width="80" height="80" filterUnits="userSpaceOnUse" color-interpolation-filters="sRGB">
<feFlood flood-opacity="0" result="BackgroundImageFix"/>
<feColorMatrix in="SourceAlpha" type="matrix" values="0 0 0 0 0 0 0 0 0 0 0 0 0 0 0 0 0 0 127 0" result="hardAlpha"/>
<feOffset/>
<feGaussianBlur stdDeviation="5"/>
<feComposite in2="hardAlpha" operator="out"/>
<feColorMatrix type="matrix" values="0 0 0 0 0 0 0 0 0 0 0 0 0 0 0 0 0 0 0.08 0"/>
<feBlend mode="normal" in2="BackgroundImageFix" result="effect1_dropShadow_2313_91472"/>
<feBlend mode="normal" in="SourceGraphic" in2="effect1_dropShadow_2313_91472" result="shape"/>
</filter>
</defs>
</svg>
