<svg width="201" height="47" viewBox="0 0 201 47" fill="none" xmlns="http://www.w3.org/2000/svg">
<g clip-path="url(#clip0_2392_2481)">
<path fill-rule="evenodd" clip-rule="evenodd" d="M5.54007 26.8461C10.6846 32.0199 13.8552 34.4428 17.3867 34.1638C25.0462 33.558 37.6363 19.3379 41.0441 12.8794C39.0025 22.4064 28.0023 42.6971 17.0408 43.0869C9.38121 43.3586 6.00336 32.971 5.54007 26.8461Z" fill="#0EAB4E"/>
<path fill-rule="evenodd" clip-rule="evenodd" d="M29.6985 37.1827C29.1289 37.8079 28.567 38.3905 28.0129 38.9311C27.5907 39.3402 27.1588 39.7371 26.7177 40.1182H26.7303C24.7109 41.885 22.7988 43.0624 20.9944 43.6498C23.1911 43.2785 25.7892 42.0257 28.8917 40.1182H37.103V29.4066L39.6301 21.4404C38.8605 23.1777 38.017 24.8807 37.103 26.5455L37.0909 26.5678L37.0155 26.7046L37.0141 26.707L37.0015 26.7297L36.9677 26.7912L36.9372 26.8458L36.9334 26.8521L36.8991 26.9135L36.8648 26.9749L36.8595 26.9846L36.831 27.0358L36.7967 27.0967L36.7822 27.1229L36.7793 27.1282L36.7039 27.2616L36.6933 27.28L36.659 27.3409L36.6256 27.3999L36.6247 27.4018L36.5551 27.5237L36.5469 27.5377L36.4855 27.6451L36.4682 27.6755C35.9401 28.5942 35.3904 29.5008 34.8189 30.3939C33.4657 32.5079 31.7265 34.9386 29.698 37.1827H29.6985Z" fill="#4F46E5"/>
<path fill-rule="evenodd" clip-rule="evenodd" d="M17.2712 32.7045C21.5365 32.367 27.4951 26.98 30.3893 24.0726C32.4034 22.0495 34.3184 19.8867 36.0759 17.6363C36.417 17.1997 36.7619 16.7495 37.104 16.2882C37.9861 15.1389 38.8475 13.9741 39.6876 12.7933L37.104 15.3265V9.75675L30.9894 3.63818H6.14444V25.3795L6.57633 25.8138C8.35559 27.6033 10.3315 29.564 12.4025 31.0112C13.6243 31.8646 15.0224 32.6267 16.5403 32.7132C16.7838 32.7272 17.0277 32.7239 17.2712 32.7045Z" fill="#4F46E5"/>
<path d="M11.0638 10.1802H31.0744C31.3546 10.1802 31.5826 10.4079 31.5826 10.6888C31.5826 10.9698 31.355 11.1975 31.0744 11.1975H11.0638C10.7832 11.1975 10.5556 10.9698 10.5556 10.6888C10.5556 10.4079 10.7832 10.1802 11.0638 10.1802Z" fill="white"/>
<path d="M11.0638 13.3872H31.0744C31.3546 13.3872 31.5826 13.6149 31.5826 13.8959C31.5826 14.1768 31.355 14.4046 31.0744 14.4046H11.0638C10.7832 14.4046 10.5556 14.1768 10.5556 13.8959C10.5556 13.6149 10.7832 13.3872 11.0638 13.3872Z" fill="white"/>
<path d="M11.0638 16.5942H30.199C30.4797 16.5942 30.7072 16.822 30.7072 17.1029C30.7072 17.3838 30.4797 17.6116 30.199 17.6116H11.0638C10.7836 17.6116 10.5556 17.3838 10.5556 17.1029C10.5556 16.822 10.7832 16.5942 11.0638 16.5942Z" fill="white"/>
<path d="M11.0638 19.8018H27.6579C27.9386 19.8018 28.1661 20.0295 28.1661 20.3104C28.1661 20.5909 27.9386 20.8191 27.6579 20.8191H11.0638C10.7832 20.8191 10.5556 20.5914 10.5556 20.3104C10.5556 20.0295 10.7832 19.8018 11.0638 19.8018Z" fill="white"/>
<path d="M11.0638 23.0083H25.6815C25.9617 23.0083 26.1897 23.236 26.1897 23.517C26.1897 23.7979 25.9622 24.0256 25.6815 24.0256H11.0638C10.7832 24.0256 10.5556 23.7979 10.5556 23.517C10.5556 23.236 10.7832 23.0083 11.0638 23.0083Z" fill="white"/>
<path d="M11.0638 26.2153H23.7617C24.0419 26.2153 24.2699 26.4431 24.2699 26.724C24.2699 27.0049 24.0423 27.2327 23.7617 27.2327H11.0638C10.7836 27.2327 10.5556 27.0049 10.5556 26.724C10.5556 26.4431 10.7832 26.2153 11.0638 26.2153Z" fill="white"/>
<path fill-rule="evenodd" clip-rule="evenodd" d="M7.41112 34.8688C9.19473 39.3337 12.2962 43.2546 17.0408 43.0859C28.0023 42.6962 39.0021 22.4054 41.0441 12.8784C35.6353 23.1297 19.9201 48.0686 7.4116 34.8683L7.41112 34.8688Z" fill="#06A44C"/>
<path fill-rule="evenodd" clip-rule="evenodd" d="M11.0639 10.1803H19.3804C20.378 8.09583 21.1897 5.90787 21.7964 3.63818H6.14444V25.3795L6.14589 25.381C8.17298 24.0402 10.059 22.5108 11.7803 20.8189H11.0639C10.7841 20.8189 10.5556 20.5902 10.5556 20.3102C10.5556 20.0303 10.7846 19.8016 11.0639 19.8016H12.7769C13.4422 19.0966 14.0803 18.366 14.69 17.6117H11.0639C10.7841 17.6117 10.5556 17.383 10.5556 17.103C10.5556 16.823 10.7841 16.5943 11.0639 16.5943H15.4833C16.0185 15.8831 16.5292 15.1529 17.0142 14.4044H11.0639C10.7841 14.4044 10.5556 14.1757 10.5556 13.8958C10.5556 13.6158 10.7841 13.3871 11.0639 13.3871H17.6505C18.0819 12.6719 18.4906 11.9418 18.8746 11.1972H11.0639C10.7841 11.1972 10.5556 10.9685 10.5556 10.6885C10.5556 10.4085 10.7841 10.1798 11.0639 10.1798V10.1803Z" fill="#818CF8"/>
<path fill-rule="evenodd" clip-rule="evenodd" d="M19.3809 10.1808H30.2144C31.0777 8.56825 31.8517 6.89911 32.5295 5.18016L30.9893 3.63916H21.7964C21.1901 5.90884 20.378 8.09681 19.3804 10.1813L19.3809 10.1808ZM22.4491 20.8194H11.7803C10.059 22.5113 8.17295 24.0407 6.14586 25.3815L6.5763 25.8142C7.857 27.1019 9.23915 28.4785 10.6851 29.6883C12.0928 28.9369 13.4571 28.1173 14.7745 27.2334H11.0638C10.7841 27.2334 10.5556 27.0047 10.5556 26.7247C10.5556 26.4448 10.7841 26.2161 11.0638 26.2161H16.2316C17.1891 25.5203 18.12 24.7897 19.021 24.0262H11.0638C10.7841 24.0262 10.5556 23.7975 10.5556 23.5175C10.5556 23.2375 10.7841 23.0088 11.0638 23.0088H20.1828C20.9621 22.3038 21.7177 21.5737 22.4486 20.8189L22.4491 20.8194ZM25.2868 17.6122H14.69C14.0808 18.3665 13.4426 19.0971 12.7769 19.8021H23.4056C24.0544 19.0918 24.6815 18.3611 25.2868 17.6122ZM27.6617 14.4049H17.0147C16.5301 15.1534 16.019 15.8835 15.4837 16.5948H26.0859C26.6313 15.8806 27.1569 15.1505 27.6617 14.4049ZM29.6536 11.1977H18.8751C18.4905 11.9423 18.0823 12.6724 17.6509 13.3876H28.3323C28.7917 12.6705 29.2323 11.9404 29.6536 11.1977Z" fill="#6366F1"/>
</g>
<path d="M67.0401 14.0777L57.6357 28.9114H67.234V33.1772H51.9478V29.6223L61.3522 14.821H52.1741V10.5551H67.0401V14.0777ZM72.0543 15.0795C70.6646 15.0795 69.5012 13.9161 69.5012 12.5265C69.5012 11.1368 70.6646 9.94107 72.0543 9.94107C73.4763 9.94107 74.6397 11.1368 74.6397 12.5265C74.6397 13.9161 73.4763 15.0795 72.0543 15.0795ZM74.1549 33.1772H69.986V17.0186H74.1549V33.1772ZM82.1396 33.1772H77.9706V9.58558H82.1396V33.1772ZM90.1242 33.1772H85.9553V9.58558H90.1242V33.1772ZM106.221 18.9253V17.0186H110.389V33.1772H106.221V31.2705C104.96 32.8541 103.215 33.6297 100.953 33.6297C98.7876 33.6297 96.9455 32.8218 95.3942 31.1736C93.8753 29.5254 93.0997 27.4894 93.0997 25.0979C93.0997 22.7064 93.8753 20.7027 95.3942 19.0546C96.9455 17.4064 98.7876 16.5661 100.953 16.5661C103.215 16.5661 104.96 17.3417 106.221 18.9253ZM98.529 28.3943C99.3693 29.2345 100.436 29.6547 101.728 29.6547C103.021 29.6547 104.088 29.2345 104.928 28.3943C105.8 27.5217 106.221 26.4229 106.221 25.0979C106.221 23.7729 105.8 22.6741 104.928 21.8339C104.088 20.9613 103.021 20.5412 101.728 20.5412C100.436 20.5412 99.3693 20.9613 98.529 21.8339C97.6888 22.6741 97.2686 23.7729 97.2686 25.0979C97.2686 26.4229 97.6888 27.5217 98.529 28.3943ZM125.804 35.0193C125.632 35.0193 125.427 34.987 125.19 34.9224C123.876 34.4915 122.917 33.7805 122.314 32.7894C121.711 31.7768 121.409 30.7104 121.409 29.59C121.409 29.4177 121.409 29.2561 121.409 29.1053C121.431 28.9329 121.452 28.7713 121.474 28.6205C121.667 27.3924 122.077 26.3044 122.702 25.3564C123.348 24.4085 124.07 23.6329 124.867 23.0296C125.686 22.4048 126.429 22.0062 127.097 21.8339C127.528 21.7261 127.959 21.6399 128.39 21.5753C128.82 21.4891 129.241 21.446 129.65 21.446C130.684 21.446 131.567 21.6723 132.3 22.1247C133.032 22.5772 133.399 23.3205 133.399 24.3546C133.399 24.9363 133.216 25.4642 132.849 25.9382C132.505 26.4121 132.063 26.8215 131.524 27.1662C131.007 27.4894 130.501 27.7479 130.005 27.9418C129.251 28.2435 128.39 28.4697 127.42 28.6205C126.472 28.7713 125.578 28.8467 124.738 28.8467C124.199 28.8467 123.703 28.8144 123.251 28.7498V28.7821C123.251 28.8683 123.24 28.9544 123.219 29.0406C123.197 29.1053 123.186 29.1807 123.186 29.2668C123.165 29.353 123.154 29.4392 123.154 29.5254C123.154 29.59 123.154 29.6547 123.154 29.7193C123.154 30.3872 123.283 30.9797 123.542 31.4967C123.822 31.9923 124.145 32.4232 124.511 32.7894C124.878 33.1342 125.179 33.4142 125.416 33.6297C125.804 33.8236 126.073 34.0067 126.224 34.1791C126.397 34.373 126.483 34.5238 126.483 34.6315C126.483 34.8901 126.257 35.0193 125.804 35.0193ZM125.61 27.3924C126.257 27.3924 126.935 27.3493 127.646 27.2632C128.357 27.1554 129.014 26.9615 129.618 26.6815C130.092 26.4445 130.533 26.1321 130.943 25.7443C131.352 25.3349 131.557 24.8501 131.557 24.29C131.557 23.8591 131.384 23.5359 131.04 23.3205C130.695 23.105 130.21 22.9973 129.585 22.9973C128.874 22.9973 128.099 23.1265 127.258 23.3851C126.957 23.4713 126.58 23.6759 126.127 23.9991C125.696 24.3223 125.255 24.764 124.802 25.3241C124.35 25.8628 123.973 26.5091 123.671 27.2632C123.93 27.2847 124.221 27.317 124.544 27.3601C124.888 27.3817 125.244 27.3924 125.61 27.3924ZM137.437 26.5522C137.157 26.5953 136.931 26.5414 136.759 26.3906C136.608 26.2182 136.532 26.0243 136.532 25.8089C136.532 25.6365 136.586 25.4749 136.694 25.3241C136.823 25.1518 137.006 25.044 137.243 25.001C137.459 24.9579 137.901 24.9148 138.568 24.8717C139.236 24.8071 139.99 24.7532 140.831 24.7101C141.692 24.667 142.479 24.6455 143.19 24.6455C143.944 24.6455 144.515 24.6778 144.903 24.7424C145.226 24.8071 145.387 24.9148 145.387 25.0656C145.387 25.2164 145.258 25.378 145 25.5503C144.741 25.7012 144.429 25.7873 144.062 25.8089C143.136 25.8304 142.22 25.8951 141.315 26.0028C140.432 26.1105 139.646 26.2182 138.956 26.326C138.267 26.4121 137.761 26.4876 137.437 26.5522ZM149.156 35.6657C148.488 35.6657 147.874 35.5364 147.314 35.2779C146.775 35.0409 146.441 34.6315 146.312 34.0498C146.312 33.6836 146.376 33.4035 146.506 33.2096C146.635 33.0157 146.786 32.9187 146.958 32.9187C147.346 32.9187 147.658 33.2419 147.895 33.8882C148.025 34.2114 148.455 34.373 149.188 34.373C149.554 34.373 149.985 34.3084 150.481 34.1791C150.976 34.0714 151.493 33.899 152.032 33.662C152.614 33.3819 153.282 33.0264 154.036 32.5955C154.811 32.1431 155.555 31.6152 156.265 31.012C156.998 30.3872 157.601 29.6762 158.075 28.879C158.549 28.0603 158.786 27.1554 158.786 26.1644C158.786 25.3241 158.592 24.6131 158.205 24.0314C157.838 23.4497 157.364 22.9111 156.783 22.4156C156.222 21.8985 155.651 21.3383 155.07 20.7351C154.488 20.1318 154.003 19.3777 153.615 18.4728C153.529 18.2574 153.465 18.042 153.422 17.8265C153.378 17.6111 153.357 17.4064 153.357 17.2125C153.357 16.5877 153.519 16.006 153.842 15.4673C154.186 14.9287 154.585 14.4763 155.037 14.11C155.662 13.5929 156.362 13.2482 157.138 13.0758C157.914 12.9035 158.7 12.8173 159.497 12.8173C159.67 12.8173 159.842 12.8173 160.014 12.8173C160.187 12.8173 160.348 12.8281 160.499 12.8496C160.952 12.8712 161.275 13.0112 161.469 13.2698C161.684 13.5283 161.813 13.7868 161.856 14.0454C161.921 14.2824 161.953 14.4116 161.953 14.4332C162.04 14.584 162.083 14.724 162.083 14.8533C162.083 15.2196 161.856 15.4027 161.404 15.4027C161.145 15.4027 160.898 15.3165 160.661 15.1442L159.594 14.3362C159.508 14.2716 159.4 14.2393 159.271 14.2393C159.142 14.2177 158.991 14.207 158.819 14.207C158.409 14.207 157.935 14.2824 157.397 14.4332C156.858 14.5624 156.449 14.7456 156.169 14.9826C155.888 15.2411 155.673 15.5535 155.522 15.9198C155.393 16.2645 155.328 16.62 155.328 16.9862C155.328 17.2879 155.382 17.5787 155.49 17.8588C155.727 18.5698 156.115 19.2054 156.653 19.7655C157.213 20.3257 157.795 20.8966 158.398 21.4784C159.023 22.0385 159.551 22.6741 159.982 23.3851C160.413 24.0745 160.628 24.8932 160.628 25.8412C160.628 26.7892 160.424 27.6833 160.014 28.5235C159.605 29.3638 159.066 30.1394 158.398 30.8504C157.752 31.5398 157.052 32.1646 156.298 32.7248C155.544 33.2634 154.822 33.7266 154.133 34.1144C153.443 34.5023 152.861 34.7931 152.387 34.987C151.957 35.1809 151.45 35.3425 150.868 35.4718C150.287 35.601 149.716 35.6657 149.156 35.6657ZM169.335 20.7997C169.227 20.929 169.087 20.9397 168.914 20.832C168.764 20.7243 168.634 20.5627 168.527 20.3473C168.419 20.1103 168.387 19.884 168.43 19.6686H168.462C168.548 19.3454 168.656 19.0761 168.785 18.8607C168.914 18.6452 169.087 18.4298 169.302 18.2143C169.432 18.085 169.604 18.0204 169.819 18.0204C170.013 18.0204 170.186 18.085 170.336 18.2143C170.509 18.322 170.595 18.4621 170.595 18.6344C170.595 18.7206 170.563 18.8176 170.498 18.9253C170.433 19.0115 170.304 19.2377 170.11 19.604C169.938 19.9702 169.679 20.3688 169.335 20.7997ZM165.263 32.7248C164.918 32.7248 164.573 32.5955 164.228 32.337C163.905 32.0569 163.776 31.6152 163.841 31.012C163.927 30.1717 164.045 29.4607 164.196 28.879C164.347 28.2973 164.519 27.7695 164.713 27.2955C164.907 26.8 165.112 26.2721 165.327 25.7119C165.564 25.1518 165.801 24.4731 166.038 23.6759C166.167 23.3097 166.437 23.1265 166.846 23.1265C167.126 23.1265 167.374 23.2127 167.589 23.3851C167.805 23.5574 167.87 23.7944 167.783 24.0961C167.503 25.001 167.223 25.7335 166.943 26.2936C166.663 26.8538 166.404 27.3493 166.167 27.7802C165.93 28.1896 165.726 28.642 165.553 29.1376C165.403 29.6116 165.306 30.2256 165.263 30.9797C165.263 31.0443 165.403 31.1843 165.683 31.3998C165.963 31.5937 166.103 31.8199 166.103 32.0785C166.103 32.2724 165.995 32.4447 165.78 32.5955C165.672 32.6817 165.5 32.7248 165.263 32.7248ZM174.933 42.3231C174.652 42.3231 174.372 42.3015 174.092 42.2584C173.834 42.2153 173.575 42.1615 173.317 42.0968C172.864 41.9676 172.53 41.7306 172.315 41.3859C172.121 41.0411 172.024 40.6856 172.024 40.3194C172.024 40.0178 172.099 39.7808 172.25 39.6084C172.401 39.4576 172.584 39.3822 172.8 39.3822C172.864 39.3822 172.918 39.3822 172.961 39.3822C173.026 39.4037 173.09 39.4253 173.155 39.4468C173.306 39.5114 173.478 39.7161 173.672 40.0608C173.888 40.4056 174.103 40.6318 174.319 40.7395C174.383 40.7611 174.469 40.7718 174.577 40.7718C174.943 40.7718 175.353 40.6102 175.805 40.2871C176.279 39.9639 176.635 39.6623 176.872 39.3822C177.798 38.3265 178.509 37.2816 179.005 36.2474C179.5 35.2132 179.888 34.2114 180.168 33.2419C180.47 32.2724 180.76 31.3675 181.041 30.5272C180.567 30.9581 180.071 31.3352 179.554 31.6583C179.037 31.96 178.412 32.2077 177.68 32.4016C176.969 32.5955 176.031 32.7571 174.868 32.8864C174.717 32.9079 174.577 32.9187 174.448 32.9187C174.319 32.9187 174.189 32.9187 174.06 32.9187C173.047 32.9187 172.196 32.7248 171.507 32.337C170.817 31.9276 170.3 31.4106 169.956 30.7858C169.611 30.161 169.439 29.4931 169.439 28.7821C169.439 27.7264 169.783 26.7569 170.473 25.8735C170.882 25.3564 171.399 24.8071 172.024 24.2253C172.649 23.6221 173.371 23.0619 174.189 22.5448C175.03 22.0278 175.956 21.6076 176.969 21.2845C178.003 20.9613 179.112 20.8212 180.297 20.8643C180.9 20.8643 181.331 20.9721 181.59 21.1875C181.87 21.3814 182.042 21.6292 182.107 21.9308C182.193 22.2109 182.236 22.5017 182.236 22.8034C182.215 23.1265 182.085 23.2881 181.848 23.2881C181.655 23.2881 181.418 23.2127 181.137 23.0619C180.857 22.9111 180.545 22.7711 180.2 22.6418C178.951 22.5556 177.766 22.728 176.645 23.1589C175.547 23.5898 174.566 24.1392 173.704 24.8071C172.864 25.4534 172.207 26.0997 171.733 26.7461C171.345 27.2632 171.151 27.8664 171.151 28.5559C171.151 29.0729 171.281 29.5792 171.539 30.0748C171.819 30.5488 172.239 30.9366 172.8 31.2382C173.36 31.5183 174.06 31.626 174.9 31.5614C175.934 31.4752 176.807 31.2813 177.518 30.9797C178.229 30.678 178.854 30.301 179.392 29.8486C179.931 29.3961 180.427 28.9006 180.879 28.362C181.331 27.8233 181.816 27.2847 182.333 26.7461C182.462 26.6168 182.624 26.5522 182.818 26.5522C182.99 26.5522 183.152 26.6276 183.303 26.7784C183.454 26.9077 183.529 27.1016 183.529 27.3601C183.529 27.4248 183.529 27.5002 183.529 27.5863C183.529 27.651 183.507 27.7264 183.464 27.8126C183.314 28.3512 183.109 29.0837 182.85 30.0101C182.592 30.915 182.29 31.9061 181.945 32.9833C181.622 34.039 181.245 35.0624 180.814 36.0535C180.362 37.0661 179.812 38.0572 179.166 39.0267C178.541 39.9962 177.895 40.8365 177.227 41.5474H177.259C177.022 41.8275 176.688 42.0214 176.258 42.1292C175.848 42.2584 175.407 42.3231 174.933 42.3231ZM197.827 33.4358C197.504 33.4358 197.203 33.2527 196.922 32.8864C196.642 32.4986 196.502 32.0138 196.502 31.4321C196.502 31.0658 196.535 30.6026 196.599 30.0425C196.664 29.4823 196.761 28.9221 196.89 28.362C197.019 27.7802 197.17 27.2847 197.343 26.8754C197.687 26.0997 197.86 25.4857 197.86 25.0333C197.86 24.4731 197.601 24.193 197.084 24.193C197.019 24.193 196.944 24.193 196.858 24.193C196.772 24.193 196.685 24.2146 196.599 24.2577C196.168 24.3869 195.587 24.6778 194.854 25.1302C194.122 25.5611 193.346 26.0674 192.527 26.6491C191.73 27.2309 190.976 27.8126 190.265 28.3943C189.554 28.976 189.005 29.4823 188.617 29.9132C188.078 30.5165 187.723 30.9797 187.55 31.3028C187.378 31.626 187.292 31.7876 187.292 31.7876C187.12 32.0246 186.926 32.1431 186.71 32.1431C186.516 32.1431 186.355 32.0461 186.225 31.8522C186.096 31.6368 186.064 31.3567 186.128 31.012C186.43 29.2453 186.753 27.7372 187.098 26.4876C187.464 25.2379 187.884 24.1607 188.358 23.2558C188.552 22.9111 188.822 22.7387 189.166 22.7387C189.36 22.7387 189.533 22.8141 189.683 22.965C189.834 23.0942 189.91 23.2989 189.91 23.579C189.91 23.7298 189.845 24.0207 189.716 24.4516C189.608 24.8825 189.468 25.2379 189.296 25.518C189.08 25.8628 188.897 26.2613 188.746 26.7138C188.617 27.1447 188.455 27.7479 188.261 28.5235C188.498 28.1573 188.703 27.8987 188.875 27.7479C189.048 27.5756 189.274 27.3493 189.554 27.0693C190.437 26.1859 191.482 25.3888 192.689 24.6778C193.917 23.9453 195.091 23.3312 196.212 22.8357C196.449 22.728 196.75 22.6202 197.116 22.5125C197.483 22.4048 197.849 22.3509 198.215 22.3509C198.646 22.3509 199.034 22.4694 199.379 22.7064C199.723 22.9434 199.896 23.3959 199.896 24.0638C199.896 24.4085 199.831 24.8286 199.702 25.3241C199.594 25.8197 199.4 26.4014 199.12 27.0693C198.775 27.8664 198.549 28.6959 198.441 29.5577C198.355 30.4195 198.312 31.152 198.312 31.7553C198.312 31.9276 198.312 32.1 198.312 32.2724C198.334 32.4232 198.344 32.5632 198.344 32.6925C198.344 32.9079 198.312 33.0803 198.248 33.2096C198.183 33.3604 198.043 33.4358 197.827 33.4358Z" fill="#4F46E5"/>
<defs>
<clipPath id="clip0_2392_2481">
<rect width="35.5036" height="40.012" fill="white" transform="translate(5.54012 3.63818)"/>
</clipPath>
</defs>
</svg>
